<?xml version="1.0" encoding="utf-8"?>
<svg xmlns="http://www.w3.org/2000/svg" version="1.1" xmlnsXlink="http://www.w3.org/1999/xlink" xmlnsSvgjs="http://svgjs.com/svgjs" width="1440" height="560" preserveAspectRatio="none" viewBox="0 0 1440 560">
    <g mask="url(&quot;#SvgjsMask2960&quot;)" fill="none">
        <rect width="1440" height="560" x="0" y="0" fill="url(#SvgjsLinearGradient2961)"></rect>
        <path d="M1451.787,194.104C1499.116,195.867,1536.415,156.058,1556.936,113.372C1574.826,76.158,1565.129,34.867,1545.907,-1.677C1524.831,-41.746,1496.959,-83.489,1451.787,-86.531C1402.49,-89.851,1354.189,-60.572,1332.811,-16.027C1313.504,24.202,1337.397,67.184,1359.382,106.014C1381.855,145.705,1406.208,192.406,1451.787,194.104" fill="rgba(237, 175, 184, 0.3)" class="triangle-float2"></path>
        <path d="M1414.289,634.424C1449.568,637.329,1485.352,621.372,1503.273,590.846C1521.39,559.985,1517.317,521.296,1498.612,490.788C1480.757,461.667,1448.447,445.416,1414.289,445.715C1380.667,446.009,1347.63,462.223,1332.482,492.24C1318.464,520.017,1332.004,551.051,1347.521,578.02C1363.094,605.086,1383.168,631.861,1414.289,634.424" fill="rgba(237, 175, 184, 0.3)" class="triangle-float1"></path>
        <path d="M1099.633,400.868C1153.019,401.275,1208.186,384.834,1235.696,339.079C1263.923,292.132,1256.729,233.074,1228.882,185.901C1201.529,139.565,1153.44,108.726,1099.633,108.59C1045.596,108.453,996.358,138.501,969.244,185.243C942.031,232.155,939.053,290.623,967.116,337.032C994.309,382.001,1047.084,400.467,1099.633,400.868" fill="rgba(237, 175, 184, 0.3)" class="triangle-float3"></path>
        <path d="M946.603,576.195C968.765,576.716,982.93,555.335,993.965,536.109C1004.933,517,1015.564,494.391,1004.49,475.343C993.451,456.355,968.511,453.066,946.603,454.64C927.676,456,910.678,466.116,901.529,482.741C892.702,498.782,894.993,517.477,902.947,533.968C912.373,553.513,924.91,575.685,946.603,576.195" fill="rgba(237, 175, 184, 0.3)" class="triangle-float1"></path>
        <path d="M944.339,646.188C1000.929,647.958,1063.516,643.954,1094.941,596.858C1129.122,545.632,1125.879,476.103,1092.259,424.507C1061.214,376.863,1001.203,365.234,944.339,365.729C888.581,366.214,829.786,379.401,800.813,427.043C770.908,476.218,777.686,539.773,809.219,587.92C838.022,631.898,891.794,644.544,944.339,646.188" fill="rgba(237, 175, 184, 0.3)" class="triangle-float2"></path>
        <path d="M461.877,308.6C505.051,309.65,540.724,277.741,561.22,239.728C580.619,203.75,579.722,161.496,560.699,125.317C540.119,86.178,506.097,50.778,461.877,50.792C417.674,50.806,382.786,85.771,363.162,125.379C345.721,160.581,351.928,200.507,370.562,235.093C390.426,271.962,420.009,307.582,461.877,308.6" fill="rgba(237, 175, 184, 0.3)" class="triangle-float3"></path>
        <path d="M59.548,54.605C79.67,54.518,99.578,44.757,108.479,26.711C116.638,10.17,107.906,-8.169,98.264,-23.892C89.208,-38.66,76.847,-52.177,59.548,-53.085C40.771,-54.071,22.982,-44.352,13.084,-28.365C2.629,-11.478,0.176,9.806,9.881,27.136C19.788,44.828,39.271,54.692,59.548,54.605" fill="rgba(237, 175, 184, 0.3)" class="triangle-float3"></path>
        <path d="M689.878,296.774C708.258,296.324,721.586,281.732,731.145,266.026C741.233,249.451,749.464,230.137,741.087,212.635C731.705,193.033,711.61,179.794,689.878,179.806C668.165,179.818,648.612,193.338,638.769,212.692C629.734,230.457,634.601,251.106,644.954,268.137C654.84,284.401,670.851,297.24,689.878,296.774" fill="rgba(237, 175, 184, 0.3)" class="triangle-float3"></path>
        <path d="M1114.397,288.202C1164.348,285.584,1208.108,258.036,1233.829,215.136C1260.384,170.846,1272.021,114.771,1244.626,70.995C1218.405,29.095,1163.818,25.104,1114.397,24.291C1062.883,23.444,1006.083,24.382,976.531,66.585C943.249,114.115,940.467,179.638,971.117,228.906C1000.381,275.946,1059.073,291.102,1114.397,288.202" fill="rgba(237, 175, 184, 0.3)" class="triangle-float3"></path>
        <path d="M513.445,125.549C541.145,125.041,568.509,115.845,583.672,92.658C600.366,67.131,604.69,34.618,590.6,7.567C575.45,-21.519,546.23,-42.986,513.445,-42.166C481.781,-41.374,457.842,-16.553,442.699,11.267C428.326,37.673,422.786,69.757,438.61,95.319C453.788,119.836,484.615,126.078,513.445,125.549" fill="rgba(237, 175, 184, 0.3)" class="triangle-float1"></path>
    </g>
    <defs>
        <mask id="SvgjsMask2960">
            <rect width="1440" height="560" fill="#ffffff"></rect>
        </mask>
        <linearGradient x1="15.28%" y1="-39.29%" x2="84.72%" y2="139.29%" gradientUnits="userSpaceOnUse" id="SvgjsLinearGradient2961">
            <stop stop-color="rgba(180, 163, 194, 1)" offset="0"></stop>
            <stop stop-color="rgba(247, 225, 215, 1)" offset="1"></stop>
        </linearGradient>
        <style>
            @keyframes float1 {
                0%{transform: translate(0, 0)}
                50%{transform: translate(-10px, 0)}
                100%{transform: translate(0, 0)}
            }

            .triangle-float1 {
                animation: float1 5s infinite;
            }

            @keyframes float2 {
                0%{transform: translate(0, 0)}
                50%{transform: translate(-5px, -5px)}
                100%{transform: translate(0, 0)}
            }

            .triangle-float2 {
                animation: float2 4s infinite;
            }

            @keyframes float3 {
                0%{transform: translate(0, 0)}
                50%{transform: translate(0, -10px)}
                100%{transform: translate(0, 0)}
            }

            .triangle-float3 {
                animation: float3 6s infinite;
            }
        </style>
    </defs>
</svg>
