<svg id="visual" viewBox="0 0 960 540" width="960" height="540" xmlns="http://www.w3.org/2000/svg" xmlns:xlink="http://www.w3.org/1999/xlink" version="1.1"><g stroke-width="1" stroke-linejoin="bevel"><path d="M469 228L484 182L468 227Z" fill="#e9ddd7" stroke="#e9ddd7"></path><path d="M484 182L438 199L468 227Z" fill="#cdb3ad" stroke="#cdb3ad"></path><path d="M468 227L445 292L469 228Z" fill="#cdb3ad" stroke="#cdb3ad"></path><path d="M484 182L431 185L438 199Z" fill="#e1d1ca" stroke="#e1d1ca"></path><path d="M469 228L544 182L484 182Z" fill="#f2e9e4" stroke="#f2e9e4"></path><path d="M544 182L499 125L484 182Z" fill="#d9c5be" stroke="#d9c5be"></path><path d="M484 182L430 117L431 185Z" fill="#e9ddd7" stroke="#e9ddd7"></path><path d="M552 167L499 125L544 182Z" fill="#e9ddd7" stroke="#e9ddd7"></path><path d="M379 239L445 292L468 227Z" fill="#d5bfb8" stroke="#d5bfb8"></path><path d="M469 228L572 249L544 182Z" fill="#e9ddd7" stroke="#e9ddd7"></path><path d="M381 232L468 227L438 199Z" fill="#d5bfb8" stroke="#d5bfb8"></path><path d="M570 261L572 249L469 228Z" fill="#d9c5be" stroke="#d9c5be"></path><path d="M544 182L624 166L552 167Z" fill="#c9ada7" stroke="#c9ada7"></path><path d="M445 292L570 261L469 228Z" fill="#ddcbc4" stroke="#ddcbc4"></path><path d="M430 117L388 177L431 185Z" fill="#d5bfb8" stroke="#d5bfb8"></path><path d="M431 185L388 177L438 199Z" fill="#e1d1ca" stroke="#e1d1ca"></path><path d="M499 125L430 117L484 182Z" fill="#d9c5be" stroke="#d9c5be"></path><path d="M388 177L381 232L438 199Z" fill="#eee3dd" stroke="#eee3dd"></path><path d="M356 224L379 239L381 232Z" fill="#f2e9e4" stroke="#f2e9e4"></path><path d="M381 232L379 239L468 227Z" fill="#d1b9b2" stroke="#d1b9b2"></path><path d="M552 167L534 106L499 125Z" fill="#e1d1ca" stroke="#e1d1ca"></path><path d="M499 125L441 80L430 117Z" fill="#e9ddd7" stroke="#e9ddd7"></path><path d="M441 80L416 112L430 117Z" fill="#e5d7d0" stroke="#e5d7d0"></path><path d="M430 117L416 112L388 177Z" fill="#cdb3ad" stroke="#cdb3ad"></path><path d="M388 177L356 224L381 232Z" fill="#cdb3ad" stroke="#cdb3ad"></path><path d="M379 239L355 269L445 292Z" fill="#cdb3ad" stroke="#cdb3ad"></path><path d="M361 164L356 224L388 177Z" fill="#d1b9b2" stroke="#d1b9b2"></path><path d="M360 141L361 164L388 177Z" fill="#e1d1ca" stroke="#e1d1ca"></path><path d="M624 166L597 128L552 167Z" fill="#eee3dd" stroke="#eee3dd"></path><path d="M552 167L597 128L534 106Z" fill="#e5d7d0" stroke="#e5d7d0"></path><path d="M624 166L544 182L572 249Z" fill="#eee3dd" stroke="#eee3dd"></path><path d="M495 30L441 80L499 125Z" fill="#d5bfb8" stroke="#d5bfb8"></path><path d="M416 112L360 141L388 177Z" fill="#d5bfb8" stroke="#d5bfb8"></path><path d="M572 320L583 308L570 261Z" fill="#e5d7d0" stroke="#e5d7d0"></path><path d="M570 261L634 249L572 249Z" fill="#ddcbc4" stroke="#ddcbc4"></path><path d="M445 292L572 320L570 261Z" fill="#ddcbc4" stroke="#ddcbc4"></path><path d="M597 128L555 84L534 106Z" fill="#f2e9e4" stroke="#f2e9e4"></path><path d="M534 106L495 30L499 125Z" fill="#f2e9e4" stroke="#f2e9e4"></path><path d="M639 239L624 166L572 249Z" fill="#cdb3ad" stroke="#cdb3ad"></path><path d="M329 128L360 141L340 108Z" fill="#e9ddd7" stroke="#e9ddd7"></path><path d="M361 164L316 182L356 224Z" fill="#e9ddd7" stroke="#e9ddd7"></path><path d="M356 224L355 269L379 239Z" fill="#ddcbc4" stroke="#ddcbc4"></path><path d="M380 330L425 344L445 292Z" fill="#e9ddd7" stroke="#e9ddd7"></path><path d="M445 292L540 361L572 320Z" fill="#d5bfb8" stroke="#d5bfb8"></path><path d="M617 295L634 249L570 261Z" fill="#d1b9b2" stroke="#d1b9b2"></path><path d="M634 249L639 239L572 249Z" fill="#d1b9b2" stroke="#d1b9b2"></path><path d="M626 319L617 295L583 308Z" fill="#d5bfb8" stroke="#d5bfb8"></path><path d="M583 308L617 295L570 261Z" fill="#d5bfb8" stroke="#d5bfb8"></path><path d="M634 249L683 298L639 239Z" fill="#c9ada7" stroke="#c9ada7"></path><path d="M425 344L458 362L445 292Z" fill="#d1b9b2" stroke="#d1b9b2"></path><path d="M458 362L540 361L445 292Z" fill="#e5d7d0" stroke="#e5d7d0"></path><path d="M598 348L626 319L583 308Z" fill="#c9ada7" stroke="#c9ada7"></path><path d="M355 269L380 330L445 292Z" fill="#e9ddd7" stroke="#e9ddd7"></path><path d="M425 344L425 380L458 362Z" fill="#e5d7d0" stroke="#e5d7d0"></path><path d="M329 128L316 182L361 164Z" fill="#d9c5be" stroke="#d9c5be"></path><path d="M356 224L294 203L355 269Z" fill="#e5d7d0" stroke="#e5d7d0"></path><path d="M355 269L330 302L380 330Z" fill="#d9c5be" stroke="#d9c5be"></path><path d="M598 348L583 308L572 320Z" fill="#cdb3ad" stroke="#cdb3ad"></path><path d="M617 295L683 298L634 249Z" fill="#e5d7d0" stroke="#e5d7d0"></path><path d="M340 108L360 141L416 112Z" fill="#d1b9b2" stroke="#d1b9b2"></path><path d="M360 141L329 128L361 164Z" fill="#e1d1ca" stroke="#e1d1ca"></path><path d="M571 378L598 348L572 320Z" fill="#e9ddd7" stroke="#e9ddd7"></path><path d="M403 49L340 108L416 112Z" fill="#e9ddd7" stroke="#e9ddd7"></path><path d="M524 30L495 30L534 106Z" fill="#d5bfb8" stroke="#d5bfb8"></path><path d="M441 80L403 49L416 112Z" fill="#ddcbc4" stroke="#ddcbc4"></path><path d="M419 17L403 49L441 80Z" fill="#e1d1ca" stroke="#e1d1ca"></path><path d="M555 84L524 30L534 106Z" fill="#c9ada7" stroke="#c9ada7"></path><path d="M576 0L524 30L555 84Z" fill="#d1b9b2" stroke="#d1b9b2"></path><path d="M380 330L425 380L425 344Z" fill="#d5bfb8" stroke="#d5bfb8"></path><path d="M458 362L486 397L540 361Z" fill="#e5d7d0" stroke="#e5d7d0"></path><path d="M267 237L330 302L355 269Z" fill="#e5d7d0" stroke="#e5d7d0"></path><path d="M380 330L353 382L425 380Z" fill="#c9ada7" stroke="#c9ada7"></path><path d="M493 0L478 23L495 30Z" fill="#d1b9b2" stroke="#d1b9b2"></path><path d="M495 30L478 23L441 80Z" fill="#e1d1ca" stroke="#e1d1ca"></path><path d="M425 380L449 393L458 362Z" fill="#d1b9b2" stroke="#d1b9b2"></path><path d="M540 361L571 378L572 320Z" fill="#cdb3ad" stroke="#cdb3ad"></path><path d="M449 393L486 397L458 362Z" fill="#eee3dd" stroke="#eee3dd"></path><path d="M566 386L571 378L540 361Z" fill="#e1d1ca" stroke="#e1d1ca"></path><path d="M598 348L639 395L626 319Z" fill="#d9c5be" stroke="#d9c5be"></path><path d="M274 196L294 203L316 182Z" fill="#d1b9b2" stroke="#d1b9b2"></path><path d="M316 182L294 203L356 224Z" fill="#d9c5be" stroke="#d9c5be"></path><path d="M565 396L566 386L540 361Z" fill="#d5bfb8" stroke="#d5bfb8"></path><path d="M571 378L587 391L598 348Z" fill="#d9c5be" stroke="#d9c5be"></path><path d="M486 397L565 396L540 361Z" fill="#e5d7d0" stroke="#e5d7d0"></path><path d="M566 386L587 391L571 378Z" fill="#e9ddd7" stroke="#e9ddd7"></path><path d="M478 23L419 17L441 80Z" fill="#e9ddd7" stroke="#e9ddd7"></path><path d="M403 49L346 0L340 108Z" fill="#d1b9b2" stroke="#d1b9b2"></path><path d="M425 380L454 412L449 393Z" fill="#f2e9e4" stroke="#f2e9e4"></path><path d="M449 393L454 412L486 397Z" fill="#e1d1ca" stroke="#e1d1ca"></path><path d="M575 415L578 413L565 396Z" fill="#e5d7d0" stroke="#e5d7d0"></path><path d="M401 441L454 412L425 380Z" fill="#d1b9b2" stroke="#d1b9b2"></path><path d="M565 396L587 391L566 386Z" fill="#f2e9e4" stroke="#f2e9e4"></path><path d="M524 30L493 0L495 30Z" fill="#f2e9e4" stroke="#f2e9e4"></path><path d="M477 -33L412 0L419 17Z" fill="#c9ada7" stroke="#c9ada7"></path><path d="M689 67L626 49L597 128Z" fill="#e1d1ca" stroke="#e1d1ca"></path><path d="M597 128L626 49L555 84Z" fill="#e9ddd7" stroke="#e9ddd7"></path><path d="M524 30L576 0L493 0Z" fill="#f2e9e4" stroke="#f2e9e4"></path><path d="M689 67L597 128L624 166Z" fill="#c9ada7" stroke="#c9ada7"></path><path d="M243 177L274 196L239 140Z" fill="#e9ddd7" stroke="#e9ddd7"></path><path d="M294 203L267 237L355 269Z" fill="#d1b9b2" stroke="#d1b9b2"></path><path d="M274 196L316 182L239 140Z" fill="#f2e9e4" stroke="#f2e9e4"></path><path d="M626 319L683 298L617 295Z" fill="#f2e9e4" stroke="#f2e9e4"></path><path d="M639 239L703 225L624 166Z" fill="#f2e9e4" stroke="#f2e9e4"></path><path d="M710 327L683 298L679 380Z" fill="#d9c5be" stroke="#d9c5be"></path><path d="M683 298L703 225L639 239Z" fill="#e5d7d0" stroke="#e5d7d0"></path><path d="M333 384L353 382L330 302Z" fill="#ddcbc4" stroke="#ddcbc4"></path><path d="M330 302L353 382L380 330Z" fill="#e5d7d0" stroke="#e5d7d0"></path><path d="M477 -33L419 17L478 23Z" fill="#d5bfb8" stroke="#d5bfb8"></path><path d="M419 17L386 0L403 49Z" fill="#e1d1ca" stroke="#e1d1ca"></path><path d="M239 140L316 182L329 128Z" fill="#e1d1ca" stroke="#e1d1ca"></path><path d="M274 196L267 237L294 203Z" fill="#e5d7d0" stroke="#e5d7d0"></path><path d="M703 225L707 172L624 166Z" fill="#d9c5be" stroke="#d9c5be"></path><path d="M565 396L578 413L587 391Z" fill="#f2e9e4" stroke="#f2e9e4"></path><path d="M587 391L639 395L598 348Z" fill="#e9ddd7" stroke="#e9ddd7"></path><path d="M575 415L565 396L486 397Z" fill="#e1d1ca" stroke="#e1d1ca"></path><path d="M465 434L575 415L486 397Z" fill="#d5bfb8" stroke="#d5bfb8"></path><path d="M448 450L465 434L454 412Z" fill="#c9ada7" stroke="#c9ada7"></path><path d="M454 412L465 434L486 397Z" fill="#f2e9e4" stroke="#f2e9e4"></path><path d="M626 49L576 0L555 84Z" fill="#d1b9b2" stroke="#d1b9b2"></path><path d="M412 0L386 0L419 17Z" fill="#e5d7d0" stroke="#e5d7d0"></path><path d="M353 382L370 410L425 380Z" fill="#f2e9e4" stroke="#f2e9e4"></path><path d="M276 355L333 384L330 302Z" fill="#c9ada7" stroke="#c9ada7"></path><path d="M353 382L352 421L370 410Z" fill="#f2e9e4" stroke="#f2e9e4"></path><path d="M412 0L394 -6L386 0Z" fill="#f2e9e4" stroke="#f2e9e4"></path><path d="M477 -33L394 -6L412 0Z" fill="#ddcbc4" stroke="#ddcbc4"></path><path d="M477 -33L478 23L493 0Z" fill="#c9ada7" stroke="#c9ada7"></path><path d="M274 196L254 232L267 237Z" fill="#d9c5be" stroke="#d9c5be"></path><path d="M267 237L262 285L330 302Z" fill="#e9ddd7" stroke="#e9ddd7"></path><path d="M246 257L262 285L267 237Z" fill="#e1d1ca" stroke="#e1d1ca"></path><path d="M621 418L587 391L578 413Z" fill="#ddcbc4" stroke="#ddcbc4"></path><path d="M621 418L639 395L587 391Z" fill="#e9ddd7" stroke="#e9ddd7"></path><path d="M576 0L477 -33L493 0Z" fill="#d5bfb8" stroke="#d5bfb8"></path><path d="M626 49L612 0L576 0Z" fill="#c9ada7" stroke="#c9ada7"></path><path d="M576 0L613 -9L477 -33Z" fill="#d9c5be" stroke="#d9c5be"></path><path d="M626 0L612 0L626 49Z" fill="#d9c5be" stroke="#d9c5be"></path><path d="M732 206L730 193L703 225Z" fill="#eee3dd" stroke="#eee3dd"></path><path d="M703 225L730 193L707 172Z" fill="#e5d7d0" stroke="#e5d7d0"></path><path d="M707 172L720 131L624 166Z" fill="#eee3dd" stroke="#eee3dd"></path><path d="M346 0L360 0L295 -53Z" fill="#f2e9e4" stroke="#f2e9e4"></path><path d="M394 -6L360 0L386 0Z" fill="#d5bfb8" stroke="#d5bfb8"></path><path d="M386 0L360 0L403 49Z" fill="#eee3dd" stroke="#eee3dd"></path><path d="M274 196L243 177L254 232Z" fill="#eee3dd" stroke="#eee3dd"></path><path d="M772 220L732 206L777 251Z" fill="#ddcbc4" stroke="#ddcbc4"></path><path d="M777 251L703 225L683 298Z" fill="#d9c5be" stroke="#d9c5be"></path><path d="M401 441L448 450L454 412Z" fill="#d9c5be" stroke="#d9c5be"></path><path d="M465 434L473 483L575 415Z" fill="#d5bfb8" stroke="#d5bfb8"></path><path d="M730 193L720 131L707 172Z" fill="#ddcbc4" stroke="#ddcbc4"></path><path d="M352 421L369 424L370 410Z" fill="#c9ada7" stroke="#c9ada7"></path><path d="M370 410L401 441L425 380Z" fill="#ddcbc4" stroke="#ddcbc4"></path><path d="M254 232L246 257L267 237Z" fill="#e5d7d0" stroke="#e5d7d0"></path><path d="M720 131L689 67L624 166Z" fill="#ddcbc4" stroke="#ddcbc4"></path><path d="M239 140L329 128L224 103Z" fill="#d9c5be" stroke="#d9c5be"></path><path d="M254 232L208 202L246 257Z" fill="#cdb3ad" stroke="#cdb3ad"></path><path d="M369 424L401 441L370 410Z" fill="#d5bfb8" stroke="#d5bfb8"></path><path d="M642 442L621 418L575 415Z" fill="#f2e9e4" stroke="#f2e9e4"></path><path d="M575 415L621 418L578 413Z" fill="#f2e9e4" stroke="#f2e9e4"></path><path d="M640 -7L626 0L626 49Z" fill="#cdb3ad" stroke="#cdb3ad"></path><path d="M612 0L613 -9L576 0Z" fill="#cdb3ad" stroke="#cdb3ad"></path><path d="M626 0L613 -9L612 0Z" fill="#e9ddd7" stroke="#e9ddd7"></path><path d="M333 384L352 421L353 382Z" fill="#d5bfb8" stroke="#d5bfb8"></path><path d="M369 424L393 470L401 441Z" fill="#e9ddd7" stroke="#e9ddd7"></path><path d="M334 435L352 421L333 384Z" fill="#e1d1ca" stroke="#e1d1ca"></path><path d="M295 -53L360 0L394 -6Z" fill="#c9ada7" stroke="#c9ada7"></path><path d="M360 0L346 0L403 49Z" fill="#c9ada7" stroke="#c9ada7"></path><path d="M679 380L626 319L639 395Z" fill="#e1d1ca" stroke="#e1d1ca"></path><path d="M679 380L683 298L626 319Z" fill="#c9ada7" stroke="#c9ada7"></path><path d="M684 413L679 380L639 395Z" fill="#d1b9b2" stroke="#d1b9b2"></path><path d="M260 372L276 355L220 339Z" fill="#e1d1ca" stroke="#e1d1ca"></path><path d="M262 285L276 355L330 302Z" fill="#ddcbc4" stroke="#ddcbc4"></path><path d="M224 103L329 128L227 71Z" fill="#d5bfb8" stroke="#d5bfb8"></path><path d="M243 177L208 202L254 232Z" fill="#d5bfb8" stroke="#d5bfb8"></path><path d="M239 140L238 142L243 177Z" fill="#d5bfb8" stroke="#d5bfb8"></path><path d="M720 131L718 82L689 67Z" fill="#e5d7d0" stroke="#e5d7d0"></path><path d="M677 0L640 -7L626 49Z" fill="#ddcbc4" stroke="#ddcbc4"></path><path d="M754 113L718 82L720 131Z" fill="#cdb3ad" stroke="#cdb3ad"></path><path d="M754 113L720 131L795 139Z" fill="#c9ada7" stroke="#c9ada7"></path><path d="M677 0L626 49L689 67Z" fill="#d1b9b2" stroke="#d1b9b2"></path><path d="M626 0L640 -7L613 -9Z" fill="#e9ddd7" stroke="#e9ddd7"></path><path d="M613 -9L722 -47L477 -33Z" fill="#e1d1ca" stroke="#e1d1ca"></path><path d="M238 142L221 178L243 177Z" fill="#eee3dd" stroke="#eee3dd"></path><path d="M220 339L276 355L262 285Z" fill="#e5d7d0" stroke="#e5d7d0"></path><path d="M284 432L334 435L333 384Z" fill="#d9c5be" stroke="#d9c5be"></path><path d="M352 421L334 435L369 424Z" fill="#eee3dd" stroke="#eee3dd"></path><path d="M431 484L473 483L448 450Z" fill="#eee3dd" stroke="#eee3dd"></path><path d="M431 484L448 450L401 441Z" fill="#cdb3ad" stroke="#cdb3ad"></path><path d="M448 450L473 483L465 434Z" fill="#e5d7d0" stroke="#e5d7d0"></path><path d="M334 435L393 470L369 424Z" fill="#e1d1ca" stroke="#e1d1ca"></path><path d="M174 208L208 202L221 178Z" fill="#eee3dd" stroke="#eee3dd"></path><path d="M221 178L208 202L243 177Z" fill="#d1b9b2" stroke="#d1b9b2"></path><path d="M566 532L642 442L575 415Z" fill="#e9ddd7" stroke="#e9ddd7"></path><path d="M621 418L642 442L639 395Z" fill="#e5d7d0" stroke="#e5d7d0"></path><path d="M220 339L262 285L173 309Z" fill="#d1b9b2" stroke="#d1b9b2"></path><path d="M276 355L260 372L333 384Z" fill="#d5bfb8" stroke="#d5bfb8"></path><path d="M393 470L431 484L401 441Z" fill="#c9ada7" stroke="#c9ada7"></path><path d="M686 1L677 0L689 67Z" fill="#eee3dd" stroke="#eee3dd"></path><path d="M772 220L730 193L732 206Z" fill="#d1b9b2" stroke="#d1b9b2"></path><path d="M795 139L720 131L730 193Z" fill="#c9ada7" stroke="#c9ada7"></path><path d="M689 0L686 1L710 14Z" fill="#d9c5be" stroke="#d9c5be"></path><path d="M683 415L684 413L639 395Z" fill="#ddcbc4" stroke="#ddcbc4"></path><path d="M679 380L752 325L710 327Z" fill="#e5d7d0" stroke="#e5d7d0"></path><path d="M227 71L329 128L340 108Z" fill="#e9ddd7" stroke="#e9ddd7"></path><path d="M239 140L202 112L238 142Z" fill="#d1b9b2" stroke="#d1b9b2"></path><path d="M238 142L202 112L221 178Z" fill="#d9c5be" stroke="#d9c5be"></path><path d="M642 442L683 415L639 395Z" fill="#ddcbc4" stroke="#ddcbc4"></path><path d="M752 325L683 298L710 327Z" fill="#f2e9e4" stroke="#f2e9e4"></path><path d="M777 251L732 206L703 225Z" fill="#f2e9e4" stroke="#f2e9e4"></path><path d="M686 1L689 67L710 14Z" fill="#e5d7d0" stroke="#e5d7d0"></path><path d="M677 0L722 -47L640 -7Z" fill="#d5bfb8" stroke="#d5bfb8"></path><path d="M694 422L679 380L684 413Z" fill="#ddcbc4" stroke="#ddcbc4"></path><path d="M788 375L752 325L679 380Z" fill="#f2e9e4" stroke="#f2e9e4"></path><path d="M710 14L689 67L718 82Z" fill="#e1d1ca" stroke="#e1d1ca"></path><path d="M686 1L689 0L677 0Z" fill="#f2e9e4" stroke="#f2e9e4"></path><path d="M640 -7L722 -47L613 -9Z" fill="#e5d7d0" stroke="#e5d7d0"></path><path d="M752 325L777 251L683 298Z" fill="#e5d7d0" stroke="#e5d7d0"></path><path d="M271 0L227 71L340 108Z" fill="#d9c5be" stroke="#d9c5be"></path><path d="M224 103L202 112L239 140Z" fill="#d9c5be" stroke="#d9c5be"></path><path d="M284 432L325 455L334 435Z" fill="#cdb3ad" stroke="#cdb3ad"></path><path d="M334 435L325 455L393 470Z" fill="#ddcbc4" stroke="#ddcbc4"></path><path d="M412 540L421 540L431 484Z" fill="#d5bfb8" stroke="#d5bfb8"></path><path d="M728 7L710 14L718 82Z" fill="#cdb3ad" stroke="#cdb3ad"></path><path d="M684 434L694 422L683 415Z" fill="#e1d1ca" stroke="#e1d1ca"></path><path d="M683 415L694 422L684 413Z" fill="#e9ddd7" stroke="#e9ddd7"></path><path d="M173 309L262 285L246 257Z" fill="#c9ada7" stroke="#c9ada7"></path><path d="M260 372L284 432L333 384Z" fill="#e5d7d0" stroke="#e5d7d0"></path><path d="M642 442L684 434L683 415Z" fill="#eee3dd" stroke="#eee3dd"></path><path d="M703 440L684 434L674 540Z" fill="#e9ddd7" stroke="#e9ddd7"></path><path d="M295 -53L271 0L346 0Z" fill="#e1d1ca" stroke="#e1d1ca"></path><path d="M346 0L271 0L340 108Z" fill="#c9ada7" stroke="#c9ada7"></path><path d="M227 71L202 112L224 103Z" fill="#d1b9b2" stroke="#d1b9b2"></path><path d="M226 400L284 432L260 372Z" fill="#d9c5be" stroke="#d9c5be"></path><path d="M803 334L775 314L752 325Z" fill="#d5bfb8" stroke="#d5bfb8"></path><path d="M752 325L775 314L777 251Z" fill="#e9ddd7" stroke="#e9ddd7"></path><path d="M128 172L174 208L221 178Z" fill="#ddcbc4" stroke="#ddcbc4"></path><path d="M208 202L174 208L246 257Z" fill="#c9ada7" stroke="#c9ada7"></path><path d="M819 96L728 7L718 82Z" fill="#ddcbc4" stroke="#ddcbc4"></path><path d="M710 14L728 7L689 0Z" fill="#eee3dd" stroke="#eee3dd"></path><path d="M807 163L795 139L730 193Z" fill="#d9c5be" stroke="#d9c5be"></path><path d="M754 113L819 96L718 82Z" fill="#cdb3ad" stroke="#cdb3ad"></path><path d="M807 163L730 193L772 220Z" fill="#f2e9e4" stroke="#f2e9e4"></path><path d="M807 163L772 220L825 241Z" fill="#ddcbc4" stroke="#ddcbc4"></path><path d="M684 434L703 440L694 422Z" fill="#d5bfb8" stroke="#d5bfb8"></path><path d="M782 403L788 375L679 380Z" fill="#eee3dd" stroke="#eee3dd"></path><path d="M674 540L684 434L642 442Z" fill="#ddcbc4" stroke="#ddcbc4"></path><path d="M227 71L177 109L202 112Z" fill="#d1b9b2" stroke="#d1b9b2"></path><path d="M271 0L239 11L227 71Z" fill="#c9ada7" stroke="#c9ada7"></path><path d="M295 -53L249 0L271 0Z" fill="#cdb3ad" stroke="#cdb3ad"></path><path d="M249 0L239 11L271 0Z" fill="#f2e9e4" stroke="#f2e9e4"></path><path d="M825 241L772 220L777 251Z" fill="#eee3dd" stroke="#eee3dd"></path><path d="M178 355L226 400L220 339Z" fill="#eee3dd" stroke="#eee3dd"></path><path d="M220 339L226 400L260 372Z" fill="#c9ada7" stroke="#c9ada7"></path><path d="M284 432L307 479L325 455Z" fill="#e5d7d0" stroke="#e5d7d0"></path><path d="M477 -33L295 -53L394 -6Z" fill="#e5d7d0" stroke="#e5d7d0"></path><path d="M249 0L232 0L239 11Z" fill="#e9ddd7" stroke="#e9ddd7"></path><path d="M307 491L307 479L265 461Z" fill="#e5d7d0" stroke="#e5d7d0"></path><path d="M325 455L360 512L393 470Z" fill="#e1d1ca" stroke="#e1d1ca"></path><path d="M131 62L177 109L227 71Z" fill="#ddcbc4" stroke="#ddcbc4"></path><path d="M202 112L177 109L221 178Z" fill="#e5d7d0" stroke="#e5d7d0"></path><path d="M307 491L360 512L325 455Z" fill="#ddcbc4" stroke="#ddcbc4"></path><path d="M453 540L457 540L473 483Z" fill="#d9c5be" stroke="#d9c5be"></path><path d="M473 483L566 532L575 415Z" fill="#e1d1ca" stroke="#e1d1ca"></path><path d="M295 -53L232 0L249 0Z" fill="#eee3dd" stroke="#eee3dd"></path><path d="M239 11L193 -3L227 71Z" fill="#d1b9b2" stroke="#d1b9b2"></path><path d="M150 264L173 309L246 257Z" fill="#e5d7d0" stroke="#e5d7d0"></path><path d="M453 540L473 483L431 484Z" fill="#cdb3ad" stroke="#cdb3ad"></path><path d="M457 540L566 532L473 483Z" fill="#e5d7d0" stroke="#e5d7d0"></path><path d="M434 540L453 540L431 484Z" fill="#e5d7d0" stroke="#e5d7d0"></path><path d="M307 479L307 491L325 455Z" fill="#e1d1ca" stroke="#e1d1ca"></path><path d="M265 461L307 479L284 432Z" fill="#ddcbc4" stroke="#ddcbc4"></path><path d="M421 540L434 540L431 484Z" fill="#f2e9e4" stroke="#f2e9e4"></path><path d="M226 400L265 461L284 432Z" fill="#ddcbc4" stroke="#ddcbc4"></path><path d="M828 160L812 118L795 139Z" fill="#e1d1ca" stroke="#e1d1ca"></path><path d="M795 139L812 118L754 113Z" fill="#e9ddd7" stroke="#e9ddd7"></path><path d="M412 540L431 484L393 470Z" fill="#d1b9b2" stroke="#d1b9b2"></path><path d="M412 540L393 470L360 512Z" fill="#ddcbc4" stroke="#ddcbc4"></path><path d="M803 334L825 241L775 314Z" fill="#c9ada7" stroke="#c9ada7"></path><path d="M775 314L825 241L777 251Z" fill="#d1b9b2" stroke="#d1b9b2"></path><path d="M807 163L828 160L795 139Z" fill="#cdb3ad" stroke="#cdb3ad"></path><path d="M788 375L803 334L752 325Z" fill="#ddcbc4" stroke="#ddcbc4"></path><path d="M340 571L412 540L360 512Z" fill="#ddcbc4" stroke="#ddcbc4"></path><path d="M121 258L150 264L112 231Z" fill="#eee3dd" stroke="#eee3dd"></path><path d="M174 208L150 264L246 257Z" fill="#c9ada7" stroke="#c9ada7"></path><path d="M173 309L178 355L220 339Z" fill="#e9ddd7" stroke="#e9ddd7"></path><path d="M226 400L159 450L265 461Z" fill="#c9ada7" stroke="#c9ada7"></path><path d="M152 325L178 355L173 309Z" fill="#ddcbc4" stroke="#ddcbc4"></path><path d="M782 403L679 380L694 422Z" fill="#d1b9b2" stroke="#d1b9b2"></path><path d="M852 185L828 160L807 163Z" fill="#d1b9b2" stroke="#d1b9b2"></path><path d="M429 590L581 540L566 532Z" fill="#e1d1ca" stroke="#e1d1ca"></path><path d="M566 532L595 540L642 442Z" fill="#ddcbc4" stroke="#ddcbc4"></path><path d="M777 425L782 403L694 422Z" fill="#ddcbc4" stroke="#ddcbc4"></path><path d="M890 0L722 -47L728 7Z" fill="#f2e9e4" stroke="#f2e9e4"></path><path d="M728 7L722 -47L689 0Z" fill="#d1b9b2" stroke="#d1b9b2"></path><path d="M689 0L722 -47L677 0Z" fill="#cdb3ad" stroke="#cdb3ad"></path><path d="M477 -33L722 -47L295 -53Z" fill="#d5bfb8" stroke="#d5bfb8"></path><path d="M581 540L595 540L566 532Z" fill="#cdb3ad" stroke="#cdb3ad"></path><path d="M867 103L819 96L812 118Z" fill="#f2e9e4" stroke="#f2e9e4"></path><path d="M812 118L819 96L754 113Z" fill="#e5d7d0" stroke="#e5d7d0"></path><path d="M777 425L694 422L703 440Z" fill="#cdb3ad" stroke="#cdb3ad"></path><path d="M788 375L819 412L803 334Z" fill="#eee3dd" stroke="#eee3dd"></path><path d="M150 264L152 325L173 309Z" fill="#d9c5be" stroke="#d9c5be"></path><path d="M234 569L306 540L265 461Z" fill="#ddcbc4" stroke="#ddcbc4"></path><path d="M113 143L128 172L177 109Z" fill="#d1b9b2" stroke="#d1b9b2"></path><path d="M177 109L128 172L221 178Z" fill="#e9ddd7" stroke="#e9ddd7"></path><path d="M150 264L108 325L152 325Z" fill="#d1b9b2" stroke="#d1b9b2"></path><path d="M734 527L777 425L703 440Z" fill="#cdb3ad" stroke="#cdb3ad"></path><path d="M881 291L825 241L803 334Z" fill="#d5bfb8" stroke="#d5bfb8"></path><path d="M153 -46L193 -3L232 0Z" fill="#ddcbc4" stroke="#ddcbc4"></path><path d="M232 0L193 -3L239 11Z" fill="#d9c5be" stroke="#d9c5be"></path><path d="M876 195L852 185L825 241Z" fill="#cdb3ad" stroke="#cdb3ad"></path><path d="M825 241L852 185L807 163Z" fill="#cdb3ad" stroke="#cdb3ad"></path><path d="M828 160L867 103L812 118Z" fill="#ddcbc4" stroke="#ddcbc4"></path><path d="M876 195L825 241L890 232Z" fill="#e1d1ca" stroke="#e1d1ca"></path><path d="M116 220L150 264L174 208Z" fill="#d9c5be" stroke="#d9c5be"></path><path d="M114 213L116 220L174 208Z" fill="#e1d1ca" stroke="#e1d1ca"></path><path d="M128 172L114 213L174 208Z" fill="#ddcbc4" stroke="#ddcbc4"></path><path d="M116 220L112 231L150 264Z" fill="#cdb3ad" stroke="#cdb3ad"></path><path d="M114 213L112 231L116 220Z" fill="#e5d7d0" stroke="#e5d7d0"></path><path d="M113 143L111 206L128 172Z" fill="#e5d7d0" stroke="#e5d7d0"></path><path d="M128 172L111 206L114 213Z" fill="#d9c5be" stroke="#d9c5be"></path><path d="M114 213L87 230L112 231Z" fill="#e5d7d0" stroke="#e5d7d0"></path><path d="M265 461L306 540L307 491Z" fill="#eee3dd" stroke="#eee3dd"></path><path d="M307 491L306 540L360 512Z" fill="#ddcbc4" stroke="#ddcbc4"></path><path d="M143 376L226 400L178 355Z" fill="#e9ddd7" stroke="#e9ddd7"></path><path d="M131 62L113 143L177 109Z" fill="#c9ada7" stroke="#c9ada7"></path><path d="M595 540L674 540L642 442Z" fill="#eee3dd" stroke="#eee3dd"></path><path d="M106 355L143 376L152 325Z" fill="#d1b9b2" stroke="#d1b9b2"></path><path d="M152 325L143 376L178 355Z" fill="#e5d7d0" stroke="#e5d7d0"></path><path d="M108 325L150 264L121 258Z" fill="#cdb3ad" stroke="#cdb3ad"></path><path d="M193 -3L131 62L227 71Z" fill="#f2e9e4" stroke="#f2e9e4"></path><path d="M453 540L429 590L457 540Z" fill="#cdb3ad" stroke="#cdb3ad"></path><path d="M457 540L429 590L566 532Z" fill="#d9c5be" stroke="#d9c5be"></path><path d="M581 540L429 590L595 540Z" fill="#eee3dd" stroke="#eee3dd"></path><path d="M595 540L429 590L674 540Z" fill="#d9c5be" stroke="#d9c5be"></path><path d="M434 540L429 590L453 540Z" fill="#d9c5be" stroke="#d9c5be"></path><path d="M421 540L429 590L434 540Z" fill="#cdb3ad" stroke="#cdb3ad"></path><path d="M412 540L429 590L421 540Z" fill="#cdb3ad" stroke="#cdb3ad"></path><path d="M340 571L429 590L412 540Z" fill="#d5bfb8" stroke="#d5bfb8"></path><path d="M819 412L788 375L782 403Z" fill="#cdb3ad" stroke="#cdb3ad"></path><path d="M852 185L880 176L828 160Z" fill="#d5bfb8" stroke="#d5bfb8"></path><path d="M860 453L819 412L777 425Z" fill="#cdb3ad" stroke="#cdb3ad"></path><path d="M777 425L819 412L782 403Z" fill="#d9c5be" stroke="#d9c5be"></path><path d="M306 540L340 571L360 512Z" fill="#cdb3ad" stroke="#cdb3ad"></path><path d="M429 590L700 540L674 540Z" fill="#f2e9e4" stroke="#f2e9e4"></path><path d="M674 540L700 540L703 440Z" fill="#eee3dd" stroke="#eee3dd"></path><path d="M876 195L880 176L852 185Z" fill="#ddcbc4" stroke="#ddcbc4"></path><path d="M819 96L890 0L728 7Z" fill="#ddcbc4" stroke="#ddcbc4"></path><path d="M880 176L867 103L828 160Z" fill="#ddcbc4" stroke="#ddcbc4"></path><path d="M87 230L121 258L112 231Z" fill="#e9ddd7" stroke="#e9ddd7"></path><path d="M75 270L108 325L121 258Z" fill="#e9ddd7" stroke="#e9ddd7"></path><path d="M876 195L887 177L880 176Z" fill="#d1b9b2" stroke="#d1b9b2"></path><path d="M880 176L906 157L867 103Z" fill="#e5d7d0" stroke="#e5d7d0"></path><path d="M897 192L887 177L876 195Z" fill="#e1d1ca" stroke="#e1d1ca"></path><path d="M111 206L87 230L114 213Z" fill="#eee3dd" stroke="#eee3dd"></path><path d="M53 153L87 230L111 206Z" fill="#f2e9e4" stroke="#f2e9e4"></path><path d="M53 153L111 206L113 143Z" fill="#e9ddd7" stroke="#e9ddd7"></path><path d="M895 329L881 291L803 334Z" fill="#eee3dd" stroke="#eee3dd"></path><path d="M700 540L734 527L703 440Z" fill="#e9ddd7" stroke="#e9ddd7"></path><path d="M881 291L890 232L825 241Z" fill="#f2e9e4" stroke="#f2e9e4"></path><path d="M101 418L159 450L143 376Z" fill="#e5d7d0" stroke="#e5d7d0"></path><path d="M143 376L159 450L226 400Z" fill="#eee3dd" stroke="#eee3dd"></path><path d="M306 540L234 569L340 571Z" fill="#cdb3ad" stroke="#cdb3ad"></path><path d="M108 325L106 355L152 325Z" fill="#c9ada7" stroke="#c9ada7"></path><path d="M81 354L106 355L108 325Z" fill="#f2e9e4" stroke="#f2e9e4"></path><path d="M933 229L897 192L890 232Z" fill="#d1b9b2" stroke="#d1b9b2"></path><path d="M890 232L897 192L876 195Z" fill="#ddcbc4" stroke="#ddcbc4"></path><path d="M887 177L906 157L880 176Z" fill="#d5bfb8" stroke="#d5bfb8"></path><path d="M881 291L897 242L890 232Z" fill="#e5d7d0" stroke="#e5d7d0"></path><path d="M47 234L75 270L87 230Z" fill="#ddcbc4" stroke="#ddcbc4"></path><path d="M87 230L75 270L121 258Z" fill="#e1d1ca" stroke="#e1d1ca"></path><path d="M193 -3L125 0L131 62Z" fill="#e9ddd7" stroke="#e9ddd7"></path><path d="M131 62L81 58L113 143Z" fill="#e1d1ca" stroke="#e1d1ca"></path><path d="M153 -46L125 0L193 -3Z" fill="#d5bfb8" stroke="#d5bfb8"></path><path d="M295 -53L153 -46L232 0Z" fill="#d1b9b2" stroke="#d1b9b2"></path><path d="M960 168L906 157L897 192Z" fill="#d5bfb8" stroke="#d5bfb8"></path><path d="M897 192L906 157L887 177Z" fill="#e5d7d0" stroke="#e5d7d0"></path><path d="M819 412L895 329L803 334Z" fill="#d5bfb8" stroke="#d5bfb8"></path><path d="M960 260L933 229L897 242Z" fill="#e9ddd7" stroke="#e9ddd7"></path><path d="M897 242L933 229L890 232Z" fill="#ddcbc4" stroke="#ddcbc4"></path><path d="M903 339L895 329L819 412Z" fill="#d9c5be" stroke="#d9c5be"></path><path d="M153 -46L115 0L125 0Z" fill="#ddcbc4" stroke="#ddcbc4"></path><path d="M125 0L115 0L131 62Z" fill="#d1b9b2" stroke="#d1b9b2"></path><path d="M75 270L81 354L108 325Z" fill="#e1d1ca" stroke="#e1d1ca"></path><path d="M106 355L92 391L143 376Z" fill="#e9ddd7" stroke="#e9ddd7"></path><path d="M107 0L81 58L131 62Z" fill="#d1b9b2" stroke="#d1b9b2"></path><path d="M153 -46L107 0L115 0Z" fill="#eee3dd" stroke="#eee3dd"></path><path d="M115 0L107 0L131 62Z" fill="#e9ddd7" stroke="#e9ddd7"></path><path d="M81 354L92 391L106 355Z" fill="#d5bfb8" stroke="#d5bfb8"></path><path d="M926 381L903 339L819 412Z" fill="#e1d1ca" stroke="#e1d1ca"></path><path d="M960 260L897 242L881 291Z" fill="#c9ada7" stroke="#c9ada7"></path><path d="M149 487L155 492L159 450Z" fill="#e1d1ca" stroke="#e1d1ca"></path><path d="M159 450L155 492L265 461Z" fill="#c9ada7" stroke="#c9ada7"></path><path d="M81 58L53 153L113 143Z" fill="#f2e9e4" stroke="#f2e9e4"></path><path d="M75 270L40 362L81 354Z" fill="#d1b9b2" stroke="#d1b9b2"></path><path d="M101 418L149 487L159 450Z" fill="#c9ada7" stroke="#c9ada7"></path><path d="M92 391L101 418L143 376Z" fill="#d9c5be" stroke="#d9c5be"></path><path d="M155 540L234 569L155 492Z" fill="#ddcbc4" stroke="#ddcbc4"></path><path d="M155 492L234 569L265 461Z" fill="#eee3dd" stroke="#eee3dd"></path><path d="M340 571L234 569L429 590Z" fill="#ddcbc4" stroke="#ddcbc4"></path><path d="M53 153L47 234L87 230Z" fill="#c9ada7" stroke="#c9ada7"></path><path d="M828 519L860 453L777 425Z" fill="#d5bfb8" stroke="#d5bfb8"></path><path d="M960 307L881 291L895 329Z" fill="#f2e9e4" stroke="#f2e9e4"></path><path d="M795 545L796 534L734 527Z" fill="#eee3dd" stroke="#eee3dd"></path><path d="M734 527L796 534L777 425Z" fill="#d9c5be" stroke="#d9c5be"></path><path d="M795 545L734 527L700 540Z" fill="#eee3dd" stroke="#eee3dd"></path><path d="M58 448L147 502L149 487Z" fill="#cdb3ad" stroke="#cdb3ad"></path><path d="M149 487L147 502L155 492Z" fill="#e5d7d0" stroke="#e5d7d0"></path><path d="M906 157L930 130L867 103Z" fill="#d1b9b2" stroke="#d1b9b2"></path><path d="M867 103L890 0L819 96Z" fill="#d9c5be" stroke="#d9c5be"></path><path d="M960 168L930 130L906 157Z" fill="#cdb3ad" stroke="#cdb3ad"></path><path d="M902 0L890 0L915 25Z" fill="#ddcbc4" stroke="#ddcbc4"></path><path d="M429 590L795 545L700 540Z" fill="#d5bfb8" stroke="#d5bfb8"></path><path d="M796 534L828 519L777 425Z" fill="#d1b9b2" stroke="#d1b9b2"></path><path d="M819 540L828 519L796 534Z" fill="#ddcbc4" stroke="#ddcbc4"></path><path d="M926 381L932 337L903 339Z" fill="#eee3dd" stroke="#eee3dd"></path><path d="M903 339L932 337L895 329Z" fill="#e5d7d0" stroke="#e5d7d0"></path><path d="M926 381L819 412L919 420Z" fill="#d9c5be" stroke="#d9c5be"></path><path d="M915 25L890 0L867 103Z" fill="#e9ddd7" stroke="#e9ddd7"></path><path d="M890 0L902 0L722 -47Z" fill="#d1b9b2" stroke="#d1b9b2"></path><path d="M960 100L915 25L867 103Z" fill="#e9ddd7" stroke="#e9ddd7"></path><path d="M795 545L819 540L796 534Z" fill="#c9ada7" stroke="#c9ada7"></path><path d="M919 420L819 412L860 453Z" fill="#f2e9e4" stroke="#f2e9e4"></path><path d="M147 502L155 540L155 492Z" fill="#d9c5be" stroke="#d9c5be"></path><path d="M133 540L155 540L147 502Z" fill="#e5d7d0" stroke="#e5d7d0"></path><path d="M919 420L860 453L960 511Z" fill="#e9ddd7" stroke="#e9ddd7"></path><path d="M92 391L58 448L101 418Z" fill="#cdb3ad" stroke="#cdb3ad"></path><path d="M130 540L133 540L147 502Z" fill="#cdb3ad" stroke="#cdb3ad"></path><path d="M81 354L40 362L92 391Z" fill="#e5d7d0" stroke="#e5d7d0"></path><path d="M0 347L40 362L75 270Z" fill="#e9ddd7" stroke="#e9ddd7"></path><path d="M960 260L960 168L933 229Z" fill="#d1b9b2" stroke="#d1b9b2"></path><path d="M933 229L960 168L897 192Z" fill="#e9ddd7" stroke="#e9ddd7"></path><path d="M930 130L960 100L867 103Z" fill="#e5d7d0" stroke="#e5d7d0"></path><path d="M960 260L881 291L960 307Z" fill="#f2e9e4" stroke="#f2e9e4"></path><path d="M960 307L895 329L932 337Z" fill="#d1b9b2" stroke="#d1b9b2"></path><path d="M81 58L16 124L53 153Z" fill="#e5d7d0" stroke="#e5d7d0"></path><path d="M-13 199L0 253L47 234Z" fill="#d1b9b2" stroke="#d1b9b2"></path><path d="M47 234L0 253L75 270Z" fill="#e1d1ca" stroke="#e1d1ca"></path><path d="M0 97L16 124L0 94Z" fill="#d9c5be" stroke="#d9c5be"></path><path d="M864 525L860 453L828 519Z" fill="#e9ddd7" stroke="#e9ddd7"></path><path d="M960 362L960 307L932 337Z" fill="#ddcbc4" stroke="#ddcbc4"></path><path d="M960 362L932 337L926 381Z" fill="#d5bfb8" stroke="#d5bfb8"></path><path d="M795 545L841 540L819 540Z" fill="#d9c5be" stroke="#d9c5be"></path><path d="M819 540L841 540L828 519Z" fill="#c9ada7" stroke="#c9ada7"></path><path d="M872 540L841 540L795 545Z" fill="#f2e9e4" stroke="#f2e9e4"></path><path d="M960 168L960 100L930 130Z" fill="#e1d1ca" stroke="#e1d1ca"></path><path d="M915 25L960 0L902 0Z" fill="#eee3dd" stroke="#eee3dd"></path><path d="M130 540L147 502L76 540Z" fill="#cdb3ad" stroke="#cdb3ad"></path><path d="M155 540L124 554L234 569Z" fill="#eee3dd" stroke="#eee3dd"></path><path d="M153 -46L46 7L107 0Z" fill="#d5bfb8" stroke="#d5bfb8"></path><path d="M107 0L46 7L81 58Z" fill="#d5bfb8" stroke="#d5bfb8"></path><path d="M58 448L149 487L101 418Z" fill="#f2e9e4" stroke="#f2e9e4"></path><path d="M133 540L124 554L155 540Z" fill="#f2e9e4" stroke="#f2e9e4"></path><path d="M-13 199L47 234L53 153Z" fill="#eee3dd" stroke="#eee3dd"></path><path d="M0 97L0 155L16 124Z" fill="#d1b9b2" stroke="#d1b9b2"></path><path d="M16 124L0 155L53 153Z" fill="#d5bfb8" stroke="#d5bfb8"></path><path d="M960 168L965 93L960 100Z" fill="#ddcbc4" stroke="#ddcbc4"></path><path d="M960 100L965 93L915 25Z" fill="#cdb3ad" stroke="#cdb3ad"></path><path d="M982 53L965 93L960 168Z" fill="#d1b9b2" stroke="#d1b9b2"></path><path d="M982 53L960 168L996 351Z" fill="#c9ada7" stroke="#c9ada7"></path><path d="M-30 423L58 448L40 362Z" fill="#d9c5be" stroke="#d9c5be"></path><path d="M40 362L58 448L92 391Z" fill="#d9c5be" stroke="#d9c5be"></path><path d="M841 540L864 525L828 519Z" fill="#e9ddd7" stroke="#e9ddd7"></path><path d="M960 390L960 362L926 381Z" fill="#c9ada7" stroke="#c9ada7"></path><path d="M996 351L960 168L960 260Z" fill="#e5d7d0" stroke="#e5d7d0"></path><path d="M960 390L926 381L919 420Z" fill="#e5d7d0" stroke="#e5d7d0"></path><path d="M0 94L16 124L81 58Z" fill="#d1b9b2" stroke="#d1b9b2"></path><path d="M-26 191L-13 199L0 155Z" fill="#e1d1ca" stroke="#e1d1ca"></path><path d="M0 155L-13 199L53 153Z" fill="#cdb3ad" stroke="#cdb3ad"></path><path d="M0 57L0 94L81 58Z" fill="#d5bfb8" stroke="#d5bfb8"></path><path d="M0 97L-26 191L0 155Z" fill="#d9c5be" stroke="#d9c5be"></path><path d="M76 540L124 554L130 540Z" fill="#e9ddd7" stroke="#e9ddd7"></path><path d="M130 540L124 554L133 540Z" fill="#c9ada7" stroke="#c9ada7"></path><path d="M965 93L960 39L915 25Z" fill="#d1b9b2" stroke="#d1b9b2"></path><path d="M982 53L960 29L960 39Z" fill="#eee3dd" stroke="#eee3dd"></path><path d="M960 39L960 29L915 25Z" fill="#e5d7d0" stroke="#e5d7d0"></path><path d="M960 433L960 390L919 420Z" fill="#d9c5be" stroke="#d9c5be"></path><path d="M996 351L960 260L960 307Z" fill="#e5d7d0" stroke="#e5d7d0"></path><path d="M-29 236L0 347L0 253Z" fill="#f2e9e4" stroke="#f2e9e4"></path><path d="M0 253L0 347L75 270Z" fill="#e9ddd7" stroke="#e9ddd7"></path><path d="M-30 423L0 350L0 347Z" fill="#cdb3ad" stroke="#cdb3ad"></path><path d="M0 347L0 350L40 362Z" fill="#d9c5be" stroke="#d9c5be"></path><path d="M841 540L872 540L864 525Z" fill="#d1b9b2" stroke="#d1b9b2"></path><path d="M960 511L960 433L919 420Z" fill="#f2e9e4" stroke="#f2e9e4"></path><path d="M908 540L872 540L795 545Z" fill="#d1b9b2" stroke="#d1b9b2"></path><path d="M0 55L0 57L81 58Z" fill="#d1b9b2" stroke="#d1b9b2"></path><path d="M0 94L-26 191L0 97Z" fill="#c9ada7" stroke="#c9ada7"></path><path d="M46 7L0 55L81 58Z" fill="#f2e9e4" stroke="#f2e9e4"></path><path d="M0 57L-26 191L0 94Z" fill="#f2e9e4" stroke="#f2e9e4"></path><path d="M982 53L960 13L960 29Z" fill="#cdb3ad" stroke="#cdb3ad"></path><path d="M960 29L960 13L915 25Z" fill="#e1d1ca" stroke="#e1d1ca"></path><path d="M902 0L960 0L722 -47Z" fill="#eee3dd" stroke="#eee3dd"></path><path d="M0 55L-26 191L0 57Z" fill="#c9ada7" stroke="#c9ada7"></path><path d="M-13 199L-29 236L0 253Z" fill="#d9c5be" stroke="#d9c5be"></path><path d="M966 0L960 0L960 13Z" fill="#e5d7d0" stroke="#e5d7d0"></path><path d="M960 13L960 0L915 25Z" fill="#eee3dd" stroke="#eee3dd"></path><path d="M-26 191L-29 236L-13 199Z" fill="#e5d7d0" stroke="#e5d7d0"></path><path d="M996 351L960 307L960 362Z" fill="#ddcbc4" stroke="#ddcbc4"></path><path d="M965 93L982 53L960 39Z" fill="#e9ddd7" stroke="#e9ddd7"></path><path d="M982 53L966 0L960 13Z" fill="#eee3dd" stroke="#eee3dd"></path><path d="M960 0L966 0L722 -47Z" fill="#c9ada7" stroke="#c9ada7"></path><path d="M908 540L860 453L864 525Z" fill="#d5bfb8" stroke="#d5bfb8"></path><path d="M960 390L996 351L960 362Z" fill="#e5d7d0" stroke="#e5d7d0"></path><path d="M1008 419L996 351L960 390Z" fill="#d1b9b2" stroke="#d1b9b2"></path><path d="M47 540L76 540L58 448Z" fill="#d9c5be" stroke="#d9c5be"></path><path d="M58 448L76 540L147 502Z" fill="#d1b9b2" stroke="#d1b9b2"></path><path d="M46 7L0 0L0 55Z" fill="#c9ada7" stroke="#c9ada7"></path><path d="M0 55L0 0L-26 191Z" fill="#e5d7d0" stroke="#e5d7d0"></path><path d="M153 -46L0 0L46 7Z" fill="#c9ada7" stroke="#c9ada7"></path><path d="M960 540L908 540L795 545Z" fill="#eee3dd" stroke="#eee3dd"></path><path d="M872 540L908 540L864 525Z" fill="#d1b9b2" stroke="#d1b9b2"></path><path d="M0 496L47 540L58 448Z" fill="#f2e9e4" stroke="#f2e9e4"></path><path d="M76 540L79 580L124 554Z" fill="#cdb3ad" stroke="#cdb3ad"></path><path d="M-30 423L40 362L0 350Z" fill="#d5bfb8" stroke="#d5bfb8"></path><path d="M47 540L79 580L76 540Z" fill="#d1b9b2" stroke="#d1b9b2"></path><path d="M124 554L79 580L234 569Z" fill="#f2e9e4" stroke="#f2e9e4"></path><path d="M234 569L79 580L429 590Z" fill="#cdb3ad" stroke="#cdb3ad"></path><path d="M-29 236L-30 423L0 347Z" fill="#e1d1ca" stroke="#e1d1ca"></path><path d="M908 540L960 511L860 453Z" fill="#ddcbc4" stroke="#ddcbc4"></path><path d="M960 433L1008 419L960 390Z" fill="#d9c5be" stroke="#d9c5be"></path><path d="M960 511L1008 419L960 433Z" fill="#e5d7d0" stroke="#e5d7d0"></path><path d="M996 351L1008 419L982 53Z" fill="#e1d1ca" stroke="#e1d1ca"></path><path d="M-30 423L0 496L58 448Z" fill="#d5bfb8" stroke="#d5bfb8"></path><path d="M47 540L0 540L79 580Z" fill="#e9ddd7" stroke="#e9ddd7"></path><path d="M-30 423L0 509L0 496Z" fill="#d1b9b2" stroke="#d1b9b2"></path><path d="M0 496L0 509L47 540Z" fill="#cdb3ad" stroke="#cdb3ad"></path><path d="M908 540L960 540L960 511Z" fill="#f2e9e4" stroke="#f2e9e4"></path><path d="M960 511L960 540L1008 419Z" fill="#d1b9b2" stroke="#d1b9b2"></path><path d="M429 590L960 540L795 545Z" fill="#e9ddd7" stroke="#e9ddd7"></path><path d="M-30 423L0 532L0 509Z" fill="#e9ddd7" stroke="#e9ddd7"></path><path d="M0 509L0 532L47 540Z" fill="#f2e9e4" stroke="#f2e9e4"></path><path d="M-30 423L0 540L0 532Z" fill="#d9c5be" stroke="#d9c5be"></path><path d="M0 532L0 540L47 540Z" fill="#d9c5be" stroke="#d9c5be"></path></g></svg>