<svg id="visual" viewBox="0 0 960 540" width="960" height="540" xmlns="http://www.w3.org/2000/svg" xmlns:xlink="http://www.w3.org/1999/xlink" version="1.1"><rect x="0" y="0" width="960" height="540" fill="#FFFFFF"></rect><path d="M0 321L26.7 319.8C53.3 318.7 106.7 316.3 160 314.8C213.3 313.3 266.7 312.7 320 322.7C373.3 332.7 426.7 353.3 480 351.5C533.3 349.7 586.7 325.3 640 325.7C693.3 326 746.7 351 800 351.5C853.3 352 906.7 328 933.3 316L960 304L960 541L933.3 541C906.7 541 853.3 541 800 541C746.7 541 693.3 541 640 541C586.7 541 533.3 541 480 541C426.7 541 373.3 541 320 541C266.7 541 213.3 541 160 541C106.7 541 53.3 541 26.7 541L0 541Z" fill="#e6d5cb"></path><path d="M0 397L26.7 405.3C53.3 413.7 106.7 430.3 160 434.8C213.3 439.3 266.7 431.7 320 417.7C373.3 403.7 426.7 383.3 480 382C533.3 380.7 586.7 398.3 640 408.8C693.3 419.3 746.7 422.7 800 412.3C853.3 402 906.7 378 933.3 366L960 354L960 541L933.3 541C906.7 541 853.3 541 800 541C746.7 541 693.3 541 640 541C586.7 541 533.3 541 480 541C426.7 541 373.3 541 320 541C266.7 541 213.3 541 160 541C106.7 541 53.3 541 26.7 541L0 541Z" fill="#dec7ba"></path><path d="M0 486L26.7 484.8C53.3 483.7 106.7 481.3 160 481.8C213.3 482.3 266.7 485.7 320 478.8C373.3 472 426.7 455 480 447.2C533.3 439.3 586.7 440.7 640 438.8C693.3 437 746.7 432 800 435.7C853.3 439.3 906.7 451.7 933.3 457.8L960 464L960 541L933.3 541C906.7 541 853.3 541 800 541C746.7 541 693.3 541 640 541C586.7 541 533.3 541 480 541C426.7 541 373.3 541 320 541C266.7 541 213.3 541 160 541C106.7 541 53.3 541 26.7 541L0 541Z" fill="#d6b9a9"></path></svg>