<?xml version="1.0" encoding="utf-8"?>
<!-- Generator: Adobe Illustrator 24.0.2, SVG Export Plug-In . SVG Version: 6.00 Build 0)  -->
<svg version="1.1" xmlns="http://www.w3.org/2000/svg" xmlns:xlink="http://www.w3.org/1999/xlink" x="0px" y="0px"
	 viewBox="0 0 24 24" style="enable-background:new 0 0 24 24;" xml:space="preserve">
<style type="text/css">
	.st0{fill:none;}
	.st1{fill:rgb(55 65 81);}
</style>
<g id="bounding_box">
	<rect x="0" y="0" class="st0" width="24" height="24"/>
</g>
<g id="design">
	<g>
		<path class="st1" d="M20.4,20.38C20.07,20.77,19.58,21,19.06,21H4.94c-0.52,0-1.01-0.23-1.34-0.62c-0.33-0.4-0.47-0.92-0.39-1.43
			l1.66-9.5C5.01,8.61,5.74,8,6.59,8H8v3c0,0.55,0.45,1,1,1s1-0.45,1-1V8h4v3c0,0.55,0.45,1,1,1s1-0.45,1-1V8h1.41
			c0.85,0,1.58,0.61,1.72,1.45l1.66,9.5C20.87,19.46,20.73,19.98,20.4,20.38z"/>
	</g>
	<path class="st1" d="M16,7.06V8h-2V7.06C14,5.92,13.1,5,12,5s-2,0.92-2,2.06V8H8V7.06C8,4.82,9.79,3,12,3S16,4.82,16,7.06z"/>
</g>
</svg>
